<svg xmlns="http://www.w3.org/2000/svg" xmlns:xlink="http://www.w3.org/1999/xlink" width="1160" height="535" viewBox="0 0 1160 535">
  <defs>
    <path id="a" d="M673.44 388.76l-.88.48-98-179 .88-.48z"/>
    <path id="b" d="M574.98 211.5l.04-1 111 5-.04 1z"/>
    <path id="c" d="M686.08 216.5l-.16-1 92-14 .16 1z"/>
    <path id="d" d="M778.89 203.49l.22-.98 222 57-.22.98z"/>
    <path id="e" d="M1000.53 260.84l.94.33-58 160-.94-.33z"/>
    <path id="f" d="M942.07 420.5l-.14-1 160-24 .14 1z"/>
    <path id="g" d="M1101.23 395.56l-.46.88-81-43 .46-.88z"/>
    <path id="h" d="M1019.67 352.62l.66.76-75 65-.66-.76z"/>
    <path id="i" d="M942.96 420.5l.08 1-117 10-.08-1z"/>
    <path id="j" d="M671.43 385.25l-.86-.5 105-181 .86.5z"/>
    <path id="k" d="M672.86 387.48l.28-.96 153 45-.28.96z"/>
    <path id="l" d="M826 432h-1V304h1z"/>
    <path id="m" d="M1001.9 259.51l.2.98-185 42-.2-.98z"/>
    <path id="n" d="M675 388v1H562v-1z"/>
    <path id="o" d="M561.74 387.57l.52.86-91 56-.52-.86z"/>
    <path id="p" d="M470.33 444.63l-.66.74-113-101 .66-.74z"/>
    <path id="q" d="M356.9 344.49l.2-.98 205 44-.2.98z"/>
    <path id="r" d="M562.5 388.03l-1-.06 10-180 1 .06z"/>
    <path id="s" d="M573 208.5v1l-224-4v-1z"/>
    <path id="t" d="M361.5 340.96l-1 .08-10-136 1-.08z"/>
    <path id="u" d="M362.35 345.64l-.7.72-122-117 .7-.72z"/>
    <path id="v" d="M574.42 211.72l-.84.56-82-83 .84-.56z"/>
    <path id="w" d="M777.5 205.94l-1 .12-17-106 1-.12z"/>
    <path id="x" d="M426.38 244a2.5 2.5 0 1 1 0 5 2.5 2.5 0 0 1 0-5z"/>
    <path id="y" d="M349.77 207.44l.46-.88 76 40-.46.88z"/>
    <path id="z" d="M425.11 247.49l-.22-.98 150-35 .22.98z"/>
    <path id="A" d="M424.68 246.38l.64-.76 45 38-.64.76z"/>
    <path id="B" d="M425.6 247.71l.8.58-66 93-.8-.58z"/>
    <path id="C" d="M492.31 127a2.5 2.5 0 1 1 0 5 2.5 2.5 0 0 1 0-5z"/>
    <path id="D" d="M561.69 381.25a7.1 7.1 0 1 1 0 14.19 7.1 7.1 0 0 1 0-14.19z"/>
    <path id="E" d="M825.06 426.4a4.87 4.87 0 1 1 0 9.76 4.87 4.87 0 0 1 0-9.75z"/>
    <path id="F" d="M1154.13 196.4a4.87 4.87 0 1 1 0 9.76 4.87 4.87 0 0 1 0-9.75z"/>
    <path id="G" d="M375.9 134.4a4.87 4.87 0 1 1 0 9.76 4.87 4.87 0 0 1 0-9.75z"/>
    <path id="H" d="M351.46 205.81l-.92.38 24-67 .92-.38z"/>
    <path id="I" d="M243.1 228.49l-.2-.98 109-23 .2.98z"/>
    <path id="J" d="M357.85 342.52l.3.96-177 58-.3-.96z"/>
    <path id="K" d="M1021.49 355.9l-.98.2-19-93 .98-.2z"/>
    <path id="L" d="M999.18 262.47l-.36-.94 153-60 .36.94z"/>
    <path id="M" d="M1001.48 260.15l-.96-.3 41-146 .96.3z"/>
    <path id="N" d="M1045.84 114.52l.32.96-272 89-.32-.96z"/>
    <path id="O" d="M350.88 200.4a4.87 4.87 0 1 1 0 9.76 4.87 4.87 0 0 1 0-9.75z"/>
    <path id="P" d="M686.52 211.6a4.9 4.9 0 1 1 0 9.78 4.9 4.9 0 0 1 0-9.79z"/>
    <path id="Q" d="M1020.47 348.6a4.88 4.88 0 1 1-.02 9.76 4.88 4.88 0 0 1 .02-9.77z"/>
    <path id="R" d="M183.13 392.37a7.1 7.1 0 1 1 0 14.2 7.1 7.1 0 0 1 0-14.2z"/>
    <path id="S" d="M776.6 193.78a7.1 7.1 0 1 1 0 14.19 7.1 7.1 0 0 1 0-14.19z"/>
    <path id="T" d="M673 379a8 8 0 1 1 0 16 8 8 0 0 1 0-16z"/>
    <path id="U" d="M359.75 337.66a5 5 0 1 1-.02 10.01 5 5 0 0 1 .02-10.01z"/>
    <path id="V" d="M1041 111a5 5 0 1 1 0 10 5 5 0 0 1 0-10z"/>
    <path id="W" d="M827.06 293.28a9.67 9.67 0 0 1 9.69 9.66 9.67 9.67 0 0 1-9.69 9.65 9.67 9.67 0 0 1-9.69-9.65 9.67 9.67 0 0 1 9.7-9.66z"/>
    <path id="X" d="M239.48 220.06a7.5 7.5 0 1 1 .02 15.02 7.5 7.5 0 0 1-.02-15.02z"/>
    <path id="Y" d="M1002.5 253a6.5 6.5 0 1 1 0 13 6.5 6.5 0 0 1 0-13z"/>
    <path id="Z" d="M942 414a5 5 0 1 1 0 10 5 5 0 0 1 0-10z"/>
    <path id="aa" d="M1100.5 387a7.5 7.5 0 1 1 0 15 7.5 7.5 0 0 1 0-15z"/>
    <path id="ab" d="M574 204a7 7 0 1 1 0 14 7 7 0 0 1 0-14z"/>
  </defs>
  <use xlink:href="#a" width="100%" height="100%" fill="#e7e7e7"/>
  <use xlink:href="#b" width="100%" height="100%" fill="#e7e7e7"/>
  <use xlink:href="#c" width="100%" height="100%" fill="#e7e7e7"/>
  <use xlink:href="#d" width="100%" height="100%" fill="#e7e7e7"/>
  <use xlink:href="#e" width="100%" height="100%" fill="#e7e7e7"/>
  <use xlink:href="#f" width="100%" height="100%" fill="#e7e7e7"/>
  <use xlink:href="#g" width="100%" height="100%" fill="#e7e7e7"/>
  <use xlink:href="#h" width="100%" height="100%" fill="#e7e7e7"/>
  <use xlink:href="#i" width="100%" height="100%" fill="#e7e7e7"/>
  <use xlink:href="#j" width="100%" height="100%" fill="#e7e7e7"/>
  <use xlink:href="#k" width="100%" height="100%" fill="#e7e7e7"/>
  <use xlink:href="#l" width="100%" height="100%" fill="#e7e7e7"/>
  <use xlink:href="#m" width="100%" height="100%" fill="#e7e7e7"/>
  <use xlink:href="#n" width="100%" height="100%" fill="#e7e7e7"/>
  <use xlink:href="#o" width="100%" height="100%" fill="#e7e7e7"/>
  <use xlink:href="#p" width="100%" height="100%" fill="#e7e7e7"/>
  <use xlink:href="#q" width="100%" height="100%" fill="#e7e7e7"/>
  <use xlink:href="#r" width="100%" height="100%" fill="#e7e7e7"/>
  <use xlink:href="#s" width="100%" height="100%" fill="#e7e7e7"/>
  <use xlink:href="#t" width="100%" height="100%" fill="#e7e7e7"/>
  <use xlink:href="#u" width="100%" height="100%" fill="#e7e7e7"/>
  <use xlink:href="#v" width="100%" height="100%" fill="#e7e7e7"/>
  <use xlink:href="#w" width="100%" height="100%" fill="#e7e7e7"/>
  <use xlink:href="#x" width="100%" height="100%" fill="#e7e7e7"/>
  <use xlink:href="#y" width="100%" height="100%" fill="#e7e7e7"/>
  <use xlink:href="#z" width="100%" height="100%" fill="#e7e7e7"/>
  <use xlink:href="#A" width="100%" height="100%" fill="#e7e7e7"/>
  <use xlink:href="#B" width="100%" height="100%" fill="#e7e7e7"/>
  <use xlink:href="#C" width="100%" height="100%" fill="#e7e7e7"/>
  <use xlink:href="#D" width="100%" height="100%" fill="#e7e7e7"/>
  <use xlink:href="#E" width="100%" height="100%" fill="#e7e7e7"/>
  <use xlink:href="#F" width="100%" height="100%" fill="#e7e7e7"/>
  <use xlink:href="#G" width="100%" height="100%" fill="#e7e7e7"/>
  <use xlink:href="#H" width="100%" height="100%" fill="#e7e7e7"/>
  <use xlink:href="#I" width="100%" height="100%" fill="#e7e7e7"/>
  <use xlink:href="#J" width="100%" height="100%" fill="#e7e7e7"/>
  <use xlink:href="#K" width="100%" height="100%" fill="#e7e7e7"/>
  <use xlink:href="#L" width="100%" height="100%" fill="#e7e7e7"/>
  <use xlink:href="#M" width="100%" height="100%" fill="#e7e7e7"/>
  <use xlink:href="#N" width="100%" height="100%" fill="#e7e7e7"/>
  <use xlink:href="#O" width="100%" height="100%" fill="#e7e7e7"/>
  <use xlink:href="#P" width="100%" height="100%" fill="#e7e7e7" transform="matrix(1 0 0 -1 0 432.98)"/>
  <use xlink:href="#Q" width="100%" height="100%" fill="#e7e7e7"/>
  <use xlink:href="#R" width="100%" height="100%" fill="#e7e7e7"/>
  <use xlink:href="#S" width="100%" height="100%" fill="#e7e7e7"/>
  <use xlink:href="#T" width="100%" height="100%" fill="#e7e7e7"/>
  <use xlink:href="#U" width="100%" height="100%" fill="#e7e7e7"/>
  <use xlink:href="#V" width="100%" height="100%" fill="#e7e7e7"/>
  <use xlink:href="#W" width="100%" height="100%" fill="#e7e7e7"/>
  <use xlink:href="#X" width="100%" height="100%" fill="#e7e7e7"/>
  <use xlink:href="#Y" width="100%" height="100%" fill="#e7e7e7"/>
  <use xlink:href="#Z" width="100%" height="100%" fill="#e7e7e7"/>
  <use xlink:href="#aa" width="100%" height="100%" fill="#e7e7e7"/>
  <use xlink:href="#ab" width="100%" height="100%" fill="#e7e7e7"/>
  <g transform="matrix(1 0 0 -1 -214.16982 502.58271)">
    <use height="100%" width="100%" xlink:href="#P" fill="#e7e7e7"/>
  </g>
  <g transform="matrix(1 0 0 -1 -217.46012 660.17992)">
    <use xlink:href="#P" width="100%" height="100%" fill="#e7e7e7"/>
  </g>
  <g transform="translate(267.50539 -29.842357)">
    <use height="100%" width="100%" xlink:href="#C" fill="#e7e7e7"/>
  </g>
</svg>
