<svg xmlns="http://www.w3.org/2000/svg" xmlns:xlink="http://www.w3.org/1999/xlink" width="1160" height="535" viewBox="0 0 1160 535"><defs><path id="eo7ka" d="M673.44 388.76l-.88.48-98-179 .88-.48z"/><path id="eo7kb" d="M574.98 211.5l.04-1 111 5-.04 1z"/><path id="eo7kc" d="M686.08 216.5l-.16-1 92-14 .16 1z"/><path id="eo7kd" d="M778.89 203.49l.22-.98 222 57-.22.98z"/><path id="eo7ke" d="M1000.53 260.84l.94.33-58 160-.94-.33z"/><path id="eo7kf" d="M942.07 420.5l-.14-1 160-24 .14 1z"/><path id="eo7kg" d="M1101.23 395.56l-.46.88-81-43 .46-.88z"/><path id="eo7kh" d="M1019.67 352.62l.66.76-75 65-.66-.76z"/><path id="eo7ki" d="M942.96 420.5l.08 1-117 10-.08-1z"/><path id="eo7kj" d="M671.43 385.25l-.86-.5 105-181 .86.5z"/><path id="eo7kk" d="M672.86 387.48l.28-.96 153 45-.28.96z"/><path id="eo7kl" d="M826 432h-1V304h1z"/><path id="eo7km" d="M1001.9 259.51l.2.98-185 42-.2-.98z"/><path id="eo7kn" d="M675 388v1H562v-1z"/><path id="eo7ko" d="M561.74 387.57l.52.86-91 56-.52-.86z"/><path id="eo7kp" d="M470.33 444.63l-.66.74-113-101 .66-.74z"/><path id="eo7kq" d="M356.9 344.49l.2-.98 205 44-.2.98z"/><path id="eo7kr" d="M562.5 388.03l-1-.06 10-180 1 .06z"/><path id="eo7ks" d="M573 208.5v1l-224-4v-1z"/><path id="eo7kt" d="M361.5 340.96l-1 .08-10-136 1-.08z"/><path id="eo7ku" d="M362.35 345.64l-.7.72-122-117 .7-.72z"/><path id="eo7kv" d="M574.42 211.72l-.84.56-82-83 .84-.56z"/><path id="eo7kw" d="M777.5 205.94l-1 .12-17-106 1-.12z"/><path id="eo7kx" d="M426.38 244a2.5 2.5 0 1 1 0 5 2.5 2.5 0 0 1 0-5z"/><path id="eo7ky" d="M349.77 207.44l.46-.88 76 40-.46.88z"/><path id="eo7kz" d="M425.11 247.49l-.22-.98 150-35 .22.98z"/><path id="eo7kA" d="M424.68 246.38l.64-.76 45 38-.64.76z"/><path id="eo7kB" d="M425.6 247.71l.8.58-66 93-.8-.58z"/><path id="eo7kC" d="M492.31 127a2.5 2.5 0 1 1 0 5 2.5 2.5 0 0 1 0-5z"/><path id="eo7kD" d="M561.69 381.25a7.1 7.1 0 1 1 0 14.19 7.1 7.1 0 0 1 0-14.19z"/><path id="eo7kE" d="M825.06 426.4a4.87 4.87 0 1 1 0 9.76 4.87 4.87 0 0 1 0-9.75z"/><path id="eo7kF" d="M1154.13 196.4a4.87 4.87 0 1 1 0 9.76 4.87 4.87 0 0 1 0-9.75z"/><path id="eo7kG" d="M446.9 523.4a4.87 4.87 0 1 1 0 9.76 4.87 4.87 0 0 1 0-9.75z"/><path id="eo7kH" d="M375.9 134.4a4.87 4.87 0 1 1 0 9.76 4.87 4.87 0 0 1 0-9.75z"/><path id="eo7kI" d="M351.46 205.81l-.92.38 24-67 .92-.38z"/><path id="eo7kJ" d="M243.1 228.49l-.2-.98 109-23 .2.98z"/><path id="eo7kK" d="M357.85 342.52l.3.96-177 58-.3-.96z"/><path id="eo7kL" d="M1021.49 355.9l-.98.2-19-93 .98-.2z"/><path id="eo7kM" d="M999.18 262.47l-.36-.94 153-60 .36.94z"/><path id="eo7kN" d="M1001.48 260.15l-.96-.3 41-146 .96.3z"/><path id="eo7kO" d="M1045.84 114.52l.32.96-272 89-.32-.96z"/><path id="eo7kP" d="M350.88 200.4a4.87 4.87 0 1 1 0 9.76 4.87 4.87 0 0 1 0-9.75z"/><path id="eo7kQ" d="M686.52 211.6a4.9 4.9 0 1 1 0 9.78 4.9 4.9 0 0 1 0-9.79z"/><path id="eo7kR" d="M1020.47 348.6a4.88 4.88 0 1 1-.02 9.76 4.88 4.88 0 0 1 .02-9.77z"/><path id="eo7kS" d="M183.13 392.37a7.1 7.1 0 1 1 0 14.2 7.1 7.1 0 0 1 0-14.2z"/><path id="eo7kT" d="M776.6 193.78a7.1 7.1 0 1 1 0 14.19 7.1 7.1 0 0 1 0-14.19z"/><path id="eo7kU" d="M673 379a8 8 0 1 1 0 16 8 8 0 0 1 0-16z"/><path id="eo7kV" d="M359.75 337.66a5 5 0 1 1-.02 10.01 5 5 0 0 1 .02-10.01z"/><path id="eo7kW" d="M1041 111a5 5 0 1 1 0 10 5 5 0 0 1 0-10z"/><path id="eo7kX" d="M827.06 293.28a9.67 9.67 0 0 1 9.69 9.66 9.67 9.67 0 0 1-9.69 9.65 9.67 9.67 0 0 1-9.69-9.65 9.67 9.67 0 0 1 9.7-9.66z"/><path id="eo7kY" d="M239.48 220.06a7.5 7.5 0 1 1 .02 15.02 7.5 7.5 0 0 1-.02-15.02z"/><path id="eo7kZ" d="M1002.5 253a6.5 6.5 0 1 1 0 13 6.5 6.5 0 0 1 0-13z"/><path id="eo7kaa" d="M942 414a5 5 0 1 1 0 10 5 5 0 0 1 0-10z"/><path id="eo7kab" d="M1100.5 387a7.5 7.5 0 1 1 0 15 7.5 7.5 0 0 1 0-15z"/><path id="eo7kac" d="M574 204a7 7 0 1 1 0 14 7 7 0 0 1 0-14z"/></defs><g><g><g><use fill="#e7e7e7" xlink:href="#eo7ka"/></g><g><use fill="#e7e7e7" xlink:href="#eo7kb"/></g><g><use fill="#e7e7e7" xlink:href="#eo7kc"/></g><g><use fill="#e7e7e7" xlink:href="#eo7kd"/></g><g><use fill="#e7e7e7" xlink:href="#eo7ke"/></g><g><use fill="#e7e7e7" xlink:href="#eo7kf"/></g><g><use fill="#e7e7e7" xlink:href="#eo7kg"/></g><g><use fill="#e7e7e7" xlink:href="#eo7kh"/></g><g><use fill="#e7e7e7" xlink:href="#eo7ki"/></g><g><use fill="#e7e7e7" xlink:href="#eo7kj"/></g><g><use fill="#e7e7e7" xlink:href="#eo7kk"/></g><g><use fill="#e7e7e7" xlink:href="#eo7kl"/></g><g><use fill="#e7e7e7" xlink:href="#eo7km"/></g><g><use fill="#e7e7e7" xlink:href="#eo7kn"/></g><g><use fill="#e7e7e7" xlink:href="#eo7ko"/></g><g><use fill="#e7e7e7" xlink:href="#eo7kp"/></g><g><use fill="#e7e7e7" xlink:href="#eo7kq"/></g><g><use fill="#e7e7e7" xlink:href="#eo7kr"/></g><g><use fill="#e7e7e7" xlink:href="#eo7ks"/></g><g><use fill="#e7e7e7" xlink:href="#eo7kt"/></g><g><use fill="#e7e7e7" xlink:href="#eo7ku"/></g><g><use fill="#e7e7e7" xlink:href="#eo7kv"/></g><g><use fill="#e7e7e7" xlink:href="#eo7kw"/></g><g><use fill="#e7e7e7" xlink:href="#eo7kx"/></g><g><use fill="#e7e7e7" xlink:href="#eo7ky"/></g><g><use fill="#e7e7e7" xlink:href="#eo7kz"/></g><g><use fill="#e7e7e7" xlink:href="#eo7kA"/></g><g><use fill="#e7e7e7" xlink:href="#eo7kB"/></g><g><use fill="#e7e7e7" xlink:href="#eo7kC"/></g><g><use fill="#e7e7e7" xlink:href="#eo7kD"/></g><g><use fill="#e7e7e7" xlink:href="#eo7kE"/></g><g><use fill="#e7e7e7" xlink:href="#eo7kF"/></g><g><use fill="#e7e7e7" xlink:href="#eo7kG"/></g><g><use fill="#e7e7e7" xlink:href="#eo7kH"/></g><g><use fill="#e7e7e7" xlink:href="#eo7kI"/></g><g><use fill="#e7e7e7" xlink:href="#eo7kJ"/></g><g><use fill="#e7e7e7" xlink:href="#eo7kK"/></g><g><use fill="#e7e7e7" xlink:href="#eo7kL"/></g><g><use fill="#e7e7e7" xlink:href="#eo7kM"/></g><g><use fill="#e7e7e7" xlink:href="#eo7kN"/></g><g><use fill="#e7e7e7" xlink:href="#eo7kO"/></g><g><use fill="#e7e7e7" xlink:href="#eo7kP"/></g><g><use fill="#e7e7e7" xlink:href="#eo7kQ"/></g><g><use fill="#e7e7e7" xlink:href="#eo7kR"/></g><g><use fill="#e7e7e7" xlink:href="#eo7kS"/></g><g><use fill="#e7e7e7" xlink:href="#eo7kT"/></g><g><g><g><use fill="#e7e7e7" xlink:href="#eo7kU"/></g></g><g><g><use fill="#e7e7e7" xlink:href="#eo7kV"/></g></g><g/><g/><g><g><use fill="#e7e7e7" xlink:href="#eo7kW"/></g></g><g/><g><g><use fill="#e7e7e7" xlink:href="#eo7kX"/></g></g><g><g><use fill="#e7e7e7" xlink:href="#eo7kY"/></g></g><g><g><use fill="#e7e7e7" xlink:href="#eo7kZ"/></g></g><g><g><use fill="#e7e7e7" xlink:href="#eo7kaa"/></g></g><g><g><use fill="#e7e7e7" xlink:href="#eo7kab"/></g></g><g><g><use fill="#e7e7e7" xlink:href="#eo7kac"/></g></g><g/></g></g></g></svg>