<svg xmlns="http://www.w3.org/2000/svg" xmlns:xlink="http://www.w3.org/1999/xlink" width="30" height="24" viewBox="0 0 30 24"><defs><path id="a" d="M1190 120a1 1 0 0 1 1-1h24a1 1 0 0 1 0 2h-24a1 1 0 0 1-1-1z"/><path id="b" d="M1200 130a1 1 0 0 1 1-1h14a1 1 0 0 1 0 2h-14a1 1 0 0 1-1-1z"/><path id="c" d="M1190 139a1 1 0 0 1 1-1h24a1 1 0 0 1 0 2h-24a1 1 0 0 1-1-1z"/></defs><g transform="translate(-1188 -118)"><use fill="#1dafec" xlink:href="#a"/></g><g transform="translate(-1188 -118)"><use fill="#1dafec" xlink:href="#b"/></g><g transform="translate(-1188 -118)"><use fill="#1dafec" xlink:href="#c"/></g></svg>